# AST/ASF file generated using VICON BodyLanguage
# -----------------------------------------------
:version 1.10
:name VICON
:units
  mass 1.0
  length 0.45
  angle deg
:documentation
   .ast/.asf automatically generated from VICON data using
   VICON BodyBuilder and BodyLanguage model FoxedUp or BRILLIANT.MOD
:root
   order TX TY TZ RX RY RZ
   axis XYZ
   position 0 0 0  
   orientation 0 0 0 
:bonedata
  begin
     id 1 
     name lhipjoint
     direction 0.612567 -0.751349 0.245431 
     length 2.42285 
     axis 0 0 0  XYZ
  end
  begin
     id 2 
     name lfemur
     direction 0.34202 -0.939693 0  
     length 7.11304  
     axis 0 0 20  XYZ
    dof rx ry rz
    limits (-160.0 20.0)
           (-70.0 70.0)
           (-60.0 70.0)
  end
  begin
     id 3 
     name ltibia
     direction 0.34202 -0.939693 0   
     length 7.84529   
     axis 0 0 20   XYZ
    dof rx
    limits (-10.0 170.0)
  end
  begin
     id 4 
     name lfoot
     direction 0.0779239 -0.214094 0.9737   
     length 1.97176   
     axis -90 7.62852e-016 20   XYZ
    dof rx rz
    limits (-45.0 90.0)
           (-70.0 20.0)
  end
  begin
     id 5 
     name ltoes
     direction 1.53565e-011 -4.21709e-011 1   
     length 0.993197   
     axis -90 7.62852e-016 20   XYZ
    dof rx
    limits (-90.0 20.0)
  end
  begin
     id 6 
     name rhipjoint
     direction -0.665722 -0.709315 0.231701   
     length 2.56642  
     axis 0 0 0  XYZ 
  end
  begin
     id 7 
     name rfemur
     direction -0.34202 -0.939693 0   
     length 7.32108   
     axis 0 0 -20   XYZ
    dof rx ry rz
    limits (-160.0 20.0)
           (-70.0 70.0)
           (-70.0 60.0)
  end
  begin
     id 8 
     name rtibia
     direction -0.34202 -0.939693 0   
     length 7.81254   
     axis 0 0 -20   XYZ
    dof rx
    limits (-10.0 170.0)
 end
 begin
     id 9 
     name rfoot
     direction -0.0832806 -0.228812 0.969902   
     length 2.08278  
     axis -90 -7.62852e-016 -20   XYZ
    dof rx rz
    limits (-45.0 90.0)
           (-20.0 70.0)
  end
  begin
     id 10 
     name rtoes
     direction -1.53589e-011 -4.22086e-011 1   
     length 1.04609   
     axis -90 -7.62852e-016 -20   XYZ
    dof rx
    limits (-90.0 20.0)
  end
  begin
     id 11 
     name lowerback
     direction -0.00506013 0.988403 -0.151766   
     length 2.01978   
     axis 0 0 0   XYZ
    dof rx ry rz
    limits (-20.0 45.0)
           (-30.0 30.0)
           (-30.0 30.0)
  end
  begin
     id 12 
     name upperback
     direction -0.00836389 0.99968 0.0238859   
     length 2.01276   
     axis 0 0 0   XYZ
    dof rx ry rz
    limits (-20.0 45.0)
           (-30.0 30.0)
           (-30.0 30.0)
  end
  begin
     id 13 
     name thorax
     direction -0.00684136 0.995386 0.0957043   
     length 2.07303   
     axis 0 0 0   XYZ
    dof rx ry rz
    limits (-20.0 45.0)
           (-30.0 30.0)
           (-30.0 30.0)
  end
  begin
     id 14 
     name lowerneck
     direction -0.0161045 0.999661 0.0204485   
     length 1.91243   
     axis 0 0 0   XYZ
    dof rx ry rz
    limits (-20.0 45.0)
           (-30.0 30.0)
           (-30.0 30.0)
  end
  begin
     id 15 
     name upperneck
     direction 0.0553583 0.990946 -0.122319   
     length 1.91574   
     axis 0 0 0   XYZ
    dof rx ry rz
    limits (-20.0 45.0)
           (-30.0 30.0)
           (-30.0 30.0)
  end
  begin
     id 16
     name head
     direction 0.0180273 0.998839 -0.0446756  
     length 1.92693  
     axis 0 0 0   XYZ
    dof rx ry rz
    limits (-20.0 45.0)
           (-30.0 30.0)
           (-30.0 30.0)
  end
  begin
     id 17 
     name lclavicle
     direction 0.945646 0.319323 -0.0615358  
     length 4.0076  
     axis 0 0 0   XYZ
    dof ry rz
    limits (-20.0 10.0)
           (0.0 20.0)
  end
  begin
     id 18 
     name lhumerus
     direction 1 -4.48967e-011 -2.79996e-027   
     length 5.64147   
     axis 180 -30 -90   XYZ
    dof rx ry rz
    limits (-60.0 90.0)
           (-90.0 90.0)
           (-90.0 90.0)
  end
  begin
     id 19
     name lradius
     direction 1 -4.48976e-011 -9.5122e-027   
     length 2.86444   
     axis 180 -30 -90   XYZ
    dof rx
    limits (-10.0 170.0)
  end
  begin
     id 20
     name lwrist
     direction 1 -4.48983e-011 -1.24047e-026   
     length 1.43222   
     axis 9.05591e-015 90 90   XYZ
    dof ry
    limits (-180.0 0.0)
 end
  begin
     id 21 
     name lhand
     direction 1 -4.4892e-011 -2.48094e-026   
     length 0.722123   
     axis 1.58305e-014 90 90   XYZ
    dof rx rz
    limits (-90.0 90.0)
           (-45.0 45.0)
  end
  begin
     id 22 
     name lfingers
     direction 1 -4.48895e-011 -4.96187e-026   
     length 0.582194   
     axis 3.1661e-014 90 90   XYZ
    dof rx
    limits (0.0 90.0)
  end
  begin
     id 23
     name lthumb
     direction 0.707107 -6.34961e-011 0.707107   
     length 0.835918   
     axis -90 45 2.85299e-015   XYZ
    dof rx rz
    limits (-45.0 45.0)
           (-45.0 45.0)
  end
  begin
     id 24 
     name rclavicle
     direction -0.932635 0.324218 -0.15835   
     length 3.65819  
     axis 0 0 0   XYZ 
    dof ry rz
    limits (-10.0 20.0)
           (-20.0 0.0)
  end
  begin
     id 25 
     name rhumerus
     direction -1 -4.48965e-011 -4.02296e-027  
     length 5.44729   
     axis 180 30 90   XYZ
    dof rx ry rz
    limits (-90.0 60.0)
           (-90.0 90.0)
           (-90.0 90.0)
  end
  begin
     id 26 
     name rradius
     direction -1 -4.48957e-011 -8.81087e-027   
     length 3.08821   
     axis 180 30 90   XYZ
    dof rx
    limits (-10.0 170.0)
  end
  begin
     id 27 
     name rwrist
     direction -1 -4.49015e-011 -1.24047e-026   
     length 1.5441   
     axis 9.05591e-015 -90 -90   XYZ
    dof ry
    limits (-180.0 0.0)
  end
  begin
     id 28
     name rhand
     direction -1 -4.4891e-011 -2.48094e-026   
     length 0.821049   
     axis 1.58305e-014 -90 -90   XYZ
    dof rx rz
    limits (-90.0 90.0)
           (-45.0 45.0)
  end
  begin
     id 29
     name rfingers
     direction -1 -4.48985e-011 -4.96187e-026   
     length 0.661951   
     axis 3.1661e-014 -90 -90   XYZ
    dof rx
    limits (0.0 90.0)
  end
  begin
     id 30
     name rthumb
     direction -0.707107 -6.34906e-011 0.707107   
     length 0.950433   
     axis -90 -45 -2.85299e-015   XYZ
    dof rx rz
    limits (-45.0 45.0)
           (-45.0 45.0)
  end
:hierarchy
  begin
    root lhipjoint rhipjoint lowerback
    lhipjoint lfemur
    lfemur ltibia
    ltibia lfoot
    lfoot ltoes
    rhipjoint rfemur
    rfemur rtibia
    rtibia rfoot
    rfoot rtoes
    lowerback upperback
    upperback thorax
    thorax lowerneck lclavicle rclavicle
    lowerneck upperneck
    upperneck head
    lclavicle lhumerus
    lhumerus lradius
    lradius lwrist
    lwrist lhand lthumb
    lhand lfingers
    rclavicle rhumerus
    rhumerus rradius
    rradius rwrist
    rwrist rhand rthumb
    rhand rfingers
  end

#!OML:ASF F:\VICON\USERDATA\INSTALL\rory3\rory3.ASF
:FULLY-SPECIFIED
:DEGREES
1210
root 3.67324 17.5671 0.803641 -74.4105 88.0795 -71.8418
lowerback -1.43113 0.259213 -1.96014
upperback -7.31844 0.323639 -6.24149
thorax -6.82647 0.206591 -5.51165
lowerneck -8.21658 -4.12359 -6.44144
upperneck 13.1552 -4.99028 2.44546
head 5.54737 -2.56362 1.4523
rclavicle 3.97569e-015 0
rhumerus -89.7689 35.0211 -117.473
rradius 103.775
rwrist 3.11265
rhand 7.99969 13.6956
rfingers 7.12502
rthumb 33.2267 -13.2565
lclavicle 3.97569e-015 0
lhumerus -11.3203 29.0299 7.13113
lradius 94.1512
lwrist 12.4229
lhand 3.51169 43.8829
lfingers 7.12502
lthumb 28.9494 71.6553
rfemur 4.27695 -1.01704 21.9895
rtibia 15.3336
rfoot -17.8951 1.05108
rtoes -4.7544
lfemur 6.9607 -0.0697928 -12.8095
ltibia 9.23787
lfoot -14.0166 0.667663
ltoes -8.58332
1211
root 3.68945 17.5656 0.798554 -75.0151 88.127 -72.3978
lowerback -1.6984 0.263745 -1.97287
upperback -7.39147 0.347677 -6.25058
thorax -6.74896 0.222322 -5.51222
lowerneck -8.24475 -4.14248 -6.4671
upperneck 13.1923 -4.99814 2.35841
head 5.56288 -2.57477 1.4277
rclavicle -8.74653e-015 1.43125e-014
rhumerus -89.7258 34.9271 -117.362
rradius 103.773
rwrist 3.03004
rhand 8.28676 13.6563
rfingers 7.12502
rthumb 33.4996 -13.2371
lclavicle -8.74653e-015 1.43125e-014
lhumerus -11.377 29.067 7.27799
lradius 94.1617
lwrist 12.3272
lhand 3.49993 43.8796
lfingers 7.12502
lthumb 28.9382 71.654
rfemur 4.35775 -1.05271 21.922
rtibia 15.407
rfoot -17.9805 1.083
rtoes -4.96607
lfemur 7.11206 -0.0973951 -12.8685
ltibia 9.14989
lfoot -14.0576 0.728472
ltoes -9.26273
1212
root 3.70657 17.5622 0.793084 -76.7445 88.3309 -74.0388
lowerback -1.96579 0.212654 -2.14229
upperback -7.42244 0.296333 -6.2985
thorax -6.6332 0.209956 -5.46114
lowerneck -8.27772 -4.12247 -6.46206
upperneck 13.1308 -4.96613 2.32987
head 5.547 -2.56065 1.42017
rclavicle -2.14687e-014 5.56597e-014
rhumerus -89.6592 34.9306 -117.3
rradius 103.758
rwrist 2.93328
rhand 8.53645 13.6887
rfingers 7.12502
rthumb 33.7369 -13.1531
lclavicle -2.14687e-014 5.56597e-014
lhumerus -11.48 29.1238 7.29098
lradius 94.1356
lwrist 12.264
lhand 3.38958 43.7753
lfingers 7.12502
lthumb 28.8328 71.5677
rfemur 4.50266 -1.15446 21.6867
rtibia 15.4902
rfoot -18.094 1.09424
rtoes -5.36628
lfemur 7.31049 -0.196866 -13.0832
ltibia 9.03874
lfoot -14.0519 0.713877
ltoes -9.22624
1213
root 3.72059 17.5584 0.788044 -78.8029 88.4991 -75.9738
lowerback -2.14657 0.169293 -2.26415
upperback -7.46399 0.250445 -6.34996
thorax -6.57841 0.196253 -5.44393
lowerneck -8.31757 -4.10812 -6.42395
upperneck 13.1375 -4.95064 2.33374
head 5.55416 -2.55091 1.41566
rclavicle -2.06736e-014 6.36111e-014
rhumerus -89.586 34.93 -117.276
rradius 103.754
rwrist 2.8079
rhand 8.63946 13.6956
rfingers 7.12502
rthumb 33.8348 -13.1247
lclavicle -2.06736e-014 6.36111e-014
lhumerus -11.5012 29.1916 7.29171
lradius 94.0714
lwrist 12.192
lhand 3.535 43.7224
lfingers 7.12502
lthumb 28.9717 71.491
rfemur 4.68087 -1.20733 21.4977
rtibia 15.5661
rfoot -18.2435 1.0867
rtoes -5.1353
lfemur 7.5313 -0.289219 -13.2649
ltibia 8.93309
lfoot -14.0411 0.684325
ltoes -8.94988
1214
root 3.73387 17.5541 0.784736 -79.665 88.5035 -76.7478
lowerback -2.32584 0.150083 -2.25869
upperback -7.54537 0.237548 -6.33161
thorax -6.56382 0.192086 -5.42671
lowerneck -8.34308 -4.1154 -6.4373
upperneck 13.2101 -4.96129 2.36075
head 5.58268 -2.55509 1.42449
rclavicle 7.15625e-015 -3.65764e-014
rhumerus -89.5351 34.9604 -117.277
rradius 103.728
rwrist 2.63716
rhand 8.61424 13.6086
rfingers 7.12502
rthumb 33.8108 -13.2169
lclavicle 7.15625e-015 -3.65764e-014
lhumerus -11.6127 29.1131 7.30743
lradius 94.0576
lwrist 12.1165
lhand 3.4189 43.6721
lfingers 7.12502
lthumb 28.8608 71.4598
rfemur 4.80084 -1.10704 21.5085
rtibia 15.6506
rfoot -18.4176 1.06113
rtoes -4.51063
lfemur 7.72245 -0.313313 -13.266
ltibia 8.8252
lfoot -14.0483 0.659057
ltoes -8.92
1215
root 3.74908 17.5485 0.78113 -80.105 88.5079 -77.0707
lowerback -2.51828 0.136201 -2.24503
upperback -7.59613 0.232991 -6.31731
thorax -6.50794 0.191382 -5.41713
lowerneck -8.39526 -4.1279 -6.46203
upperneck 13.2131 -4.98024 2.41471
head 5.59528 -2.56179 1.44282
rclavicle 1.90833e-014 -6.20208e-014
rhumerus -89.4755 35.0497 -117.335
rradius 103.661
rwrist 2.43035
rhand 8.46224 13.5039
rfingers 7.12502
rthumb 33.6664 -13.3533
lclavicle 1.90833e-014 -6.20208e-014
lhumerus -11.7733 28.9938 7.28625
lradius 94.1337
lwrist 12.1976
lhand 3.18495 43.7282
lfingers 7.12502
lthumb 28.6373 71.5537
rfemur 4.96476 -1.03389 21.5099
rtibia 15.7099
rfoot -18.5371 0.991737
rtoes -4.63371
lfemur 7.92653 -0.328643 -13.2737
ltibia 8.78274
lfoot -14.0754 0.577239
ltoes -8.64773
1216
root 3.76452 17.5429 0.776225 -80.6234 88.5124 -77.4576
lowerback -2.70778 0.114619 -2.1861
upperback -7.63887 0.218098 -6.31387
thorax -6.44608 0.182345 -5.44451
lowerneck -8.40176 -4.1048 -6.4223
upperneck 13.1196 -4.95793 2.43551
head 5.56543 -2.54738 1.44514
rclavicle -7.95139e-016 3.18055e-015
rhumerus -89.421 35.095 -117.352
rradius 103.659
rwrist 2.31293
rhand 8.46669 13.4254
rfingers 7.12502
rthumb 33.6706 -13.4309
lclavicle -7.95139e-016 3.18055e-015
lhumerus -11.8758 28.9758 7.23185
lradius 94.1671
lwrist 12.266
lhand 3.31032 43.719
lfingers 7.12502
lthumb 28.7571 71.5242
rfemur 5.14259 -0.970184 21.5018
rtibia 15.7801
rfoot -18.6778 0.962468
rtoes -4.79983
lfemur 8.15288 -0.346585 -13.2876
ltibia 8.71257
lfoot -14.1026 0.556451
ltoes -8.48238
1217
root 3.77815 17.5393 0.772445 -81.4582 88.5771 -78.1974
lowerback -2.87671 0.084284 -2.1854
upperback -7.72215 0.189717 -6.31738
thorax -6.44131 0.170376 -5.44839
lowerneck -8.42834 -4.08177 -6.38754
upperneck 13.1395 -4.93008 2.43396
head 5.57386 -2.53217 1.44066
rclavicle 9.54166e-015 -3.49861e-014
rhumerus -89.4109 35.025 -117.288
rradius 103.722
rwrist 2.25244
rhand 8.57213 13.4051
rfingers 7.12502
rthumb 33.7708 -13.4292
lclavicle 9.54166e-015 -3.49861e-014
lhumerus -11.9606 28.9503 7.20779
lradius 94.132
lwrist 12.218
lhand 3.4256 43.6535
lfingers 7.12502
lthumb 28.8672 71.44
rfemur 5.26283 -0.899516 21.4441
rtibia 15.8752
rfoot -18.8811 0.887119
rtoes -5.03471
lfemur 8.35381 -0.377441 -13.365
ltibia 8.60074
lfoot -14.0846 0.549081
ltoes -8.34302
1218
root 3.79079 17.537 0.768404 -84.0954 88.823 -80.7423
lowerback -3.03656 0.0525968 -2.37924
upperback -7.78914 0.15952 -6.35808
thorax -6.42502 0.169445 -5.38159
lowerneck -8.5355 -4.10076 -6.33732
upperneck 13.252 -4.94718 2.36688
head 5.62516 -2.54257 1.40742
rclavicle 2.38542e-015 1.59028e-015
rhumerus -89.3807 34.9089 -117.136
rradius 103.821
rwrist 2.2427
rhand 8.76956 13.4446
rfingers 7.12502
rthumb 33.9584 -13.3484
lclavicle 2.38542e-015 1.59028e-015
lhumerus -11.9805 28.9181 7.32892
lradius 94.1132
lwrist 12.2035
lhand 3.32964 43.6538
lfingers 7.12502
lthumb 28.7755 71.456
rfemur 5.38571 -0.892274 21.1845
rtibia 15.9809
rfoot -19.0611 0.832441
rtoes -5.29453
lfemur 8.55396 -0.464104 -13.642
ltibia 8.47913
lfoot -14.0963 0.574489
ltoes -8.41694
1219
root 3.80383 17.5331 0.764173 -85.3481 88.9604 -81.8887
lowerback -3.1655 0.0348503 -2.43611
upperback -7.88787 0.145584 -6.38339
thorax -6.4593 0.167938 -5.37841
lowerneck -8.4995 -4.09821 -6.22815
upperneck 13.2356 -4.95175 2.29695
head 5.6094 -2.5445 1.36837
rclavicle 7.95139e-015 1.59028e-015
rhumerus -89.4226 34.784 -117.075
rradius 103.862
rwrist 2.31065
rhand 8.85088 13.5923
rfingers 7.12502
rthumb 34.0356 -13.1836
lclavicle 7.95139e-015 1.59028e-015
lhumerus -12.0308 28.8148 7.37655
lradius 94.1048
lwrist 12.2
lhand 3.30576 43.7253
lfingers 7.12502
lthumb 28.7527 71.5313
rfemur 5.54828 -0.762337 21.0478
rtibia 16.0201
rfoot -19.2066 0.750944
rtoes -5.09678
lfemur 8.71875 -0.498908 -13.8127
ltibia 8.48518
lfoot -14.1786 0.616454
ltoes -8.84268
1220
root 3.8156 17.5292 0.761596 -84.4545 88.9768 -80.8755
lowerback -3.28604 0.0288608 -2.40878
upperback -7.96698 0.146359 -6.34875
thorax -6.47515 0.168977 -5.35784
lowerneck -8.49205 -4.08758 -6.22277
upperneck 13.2136 -4.94445 2.33431
head 5.60162 -2.53813 1.38009
rclavicle 3.18055e-015 -6.67916e-014
rhumerus -89.4229 34.7161 -116.99
rradius 103.901
rwrist 2.3111
rhand 8.84139 13.6683
rfingers 7.12502
rthumb 34.0266 -13.1096
lclavicle 3.18055e-015 -6.67916e-014
lhumerus -12.0908 28.8097 7.40401
lradius 94.0746
lwrist 12.1479
lhand 3.39919 43.7586
lfingers 7.12502
lthumb 28.8419 71.5494
rfemur 5.73852 -0.542843 21.0675
rtibia 15.9918
rfoot -19.326 0.578956
rtoes -5.05129
lfemur 8.81976 -0.485906 -13.8444
ltibia 8.62961
lfoot -14.2805 0.616168
ltoes -9.28206
1221
root 3.82395 17.5268 0.759877 -82.6213 88.7692 -78.9643
lowerback -3.45242 0.0428291 -2.17863
upperback -8.03432 0.176194 -6.23567
thorax -6.44843 0.172849 -5.36679
lowerneck -8.52067 -4.08557 -6.25838
upperneck 13.1789 -4.94353 2.3892
head 5.59783 -2.53551 1.40274
rclavicle -1.11319e-014 6.99722e-014
rhumerus -89.3856 34.6907 -116.891
rradius 103.978
rwrist 2.21183
rhand 8.82972 13.5642
rfingers 7.12502
rthumb 34.0155 -13.2161
lclavicle -1.11319e-014 6.99722e-014
lhumerus -12.1812 28.8818 7.42174
lradius 94.0784
lwrist 12.097
lhand 3.77482 43.6422
lfingers 7.12502
lthumb 29.2007 71.3713
rfemur 5.87235 -0.252434 21.3526
rtibia 15.9275
rfoot -19.3949 0.342489
rtoes -4.90179
lfemur 8.82809 -0.428238 -13.6251
ltibia 8.84262
lfoot -14.3969 0.582707
ltoes -9.21174
1222
root 3.82849 17.5247 0.757079 -83.5743 88.5415 -79.9129
lowerback -3.59809 0.0206478 -1.90978
upperback -8.17928 0.156162 -6.1094
thorax -6.52184 0.15015 -5.38661
lowerneck -8.43933 -4.06913 -6.24679
upperneck 13.1281 -4.92673 2.38143
head 5.5668 -2.52759 1.40166
rclavicle -3.18055e-015 -1.11319e-014
rhumerus -89.5052 34.642 -116.905
rradius 104.073
rwrist 2.20669
rhand 8.79509 13.4246
rfingers 7.12502
rthumb 33.9826 -13.363
lclavicle -3.18055e-015 -1.11319e-014
lhumerus -12.3433 28.7709 7.38279
lradius 94.1106
lwrist 12.1077
lhand 3.86603 43.643
lfingers 7.12502
lthumb 29.2878 71.3569
rfemur 5.92321 -0.0159387 21.6626
rtibia 15.8416
rfoot -19.4471 0.0530294
rtoes -5.37097
lfemur 8.70561 -0.417948 -13.3743
ltibia 9.09386
lfoot -14.5438 0.521205
ltoes -9.13926
1223
root 3.83715 17.5214 0.752176 -86.4067 88.5826 -82.7144
lowerback -3.78891 -0.0375998 -1.89082
upperback -8.2716 0.0924559 -6.04295
thorax -6.51676 0.121372 -5.32544
lowerneck -8.36865 -4.06266 -6.29481
upperneck 13.053 -4.9198 2.41011
head 5.53299 -2.52481 1.42073
rclavicle -3.97569e-015 3.02153e-014
rhumerus -89.5823 34.627 -116.822
rradius 104.17
rwrist 2.25829
rhand 8.88129 13.3904
rfingers 7.12502
rthumb 34.0645 -13.379
lclavicle -3.97569e-015 3.02153e-014
lhumerus -12.5361 28.6925 7.36902
lradius 94.1675
lwrist 12.1264
lhand 3.58948 43.8317
lfingers 7.12502
lthumb 29.0237 71.5914
rfemur 6.06535 -0.00487802 21.6242
rtibia 15.718
rfoot -19.4555 -0.0602494
rtoes -5.62575
lfemur 8.56966 -0.484812 -13.421
ltibia 9.4286
lfoot -14.744 0.472968
ltoes -9.21047
1224
root 3.84837 17.5181 0.74666 -87.7743 88.6172 -83.9877
lowerback -3.97146 -0.044419 -1.79472
upperback -8.30799 0.0957579 -6.0214
thorax -6.45114 0.119302 -5.35533
lowerneck -8.34707 -4.10418 -6.33624
upperneck 12.983 -4.9802 2.46354
head 5.51255 -2.55283 1.44015
rclavicle -2.38542e-015 9.54166e-015
rhumerus -89.4912 34.5715 -116.66
rradius 104.208
rwrist 2.25153
rhand 9.05256 13.4353
rfingers 7.12502
rthumb 34.2272 -13.2978
lclavicle -2.38542e-015 9.54166e-015
lhumerus -12.5945 28.6931 7.43551
lradius 94.1922
lwrist 12.0587
lhand 3.45378 43.9606
lfingers 7.12502
lthumb 28.8941 71.7425
rfemur 6.26884 -0.0361059 21.5703
rtibia 15.6212
rfoot -19.4703 -0.0736663
rtoes -5.57187
lfemur 8.57164 -0.518497 -13.4685
ltibia 9.69745
lfoot -14.901 0.441395
ltoes -9.36093
